<svg xmlns="http://www.w3.org/2000/svg" xmlns:xlink="http://www.w3.org/1999/xlink" width="533.397" height="652.116" viewBox="0 0 141.128 172.539"><style>.B{dominant-baseline:auto}</style><defs><linearGradient id="A" x1="115.851" x2="118.036" y1="190.464" y2="121.241" xlink:href="#B"/><linearGradient id="B" gradientUnits="userSpaceOnUse"><stop offset="0" stop-color="#c0e5ff"/><stop offset="1" stop-color="#64c1ff"/></linearGradient><linearGradient id="C" x1="83.742" x2="83.207" y1="224.588" y2="163.383" xlink:href="#D"/><linearGradient id="D" gradientUnits="userSpaceOnUse"><stop offset="0" stop-color="#086bff"/><stop offset="1" stop-color="#9cf"/></linearGradient><linearGradient id="E" x1="177.553" x2="177.821" y1="224.321" y2="156.969" xlink:href="#F"/><linearGradient id="F" gradientUnits="userSpaceOnUse"><stop offset="0" stop-color="#080a9e"/><stop offset="1" stop-color="#7998ea"/></linearGradient><linearGradient id="G" x1="115.678" x2="117.862" y1="133.95" y2="64.727" xlink:href="#B"/><linearGradient id="H" x1="83.568" x2="83.033" y1="168.074" y2="106.869" xlink:href="#D"/><linearGradient id="I" x1="177.38" x2="177.647" y1="167.807" y2="100.455" xlink:href="#F"/><path id="J" d="M111.035 201.435v7.125l5.715 3.006v-7.125zm-11.96-6.29v7.125l5.95 3.13v-7.125zm-11.962-6.292v7.126l5.95 3.13v-7.126z"/></defs><g class="B" transform="translate(-60.706 -59.564)"><path fill="#fff" d="M138.7 116.078l-77.8 40.87.068 41.396 1.348.697 62.518 33.06 77.02-39.243v-41.285z"/><path fill="url(#A)" d="M138.643 121.687l55.297 31.42-69.26 37.98-55.87-32.507z"/><path fill="url(#C)" d="M65.9 162.686l56.285 32.73.14 29.764-56.373-29.88z"/><path fill="url(#E)" d="M196.835 157.235v32.533l-69.52 35.497-.14-29.842z"/><g fill="#fff"><use xlink:href="#J"/><path d="M138.516 59.564l-77.8 40.87.068 41.396 1.348.697 62.518 33.06 77.02-39.243V95.06z"/></g><path fill="url(#G)" d="M138.47 65.173l55.297 31.42-69.26 37.98-55.87-32.507z"/><path fill="url(#H)" d="M65.716 106.172L122 138.9l.14 29.764-56.373-29.88z"/><path fill="url(#I)" d="M196.66 100.72v32.533l-69.52 35.497-.14-29.842z"/><use x="-.175" y="-56.515" fill="#fff" xlink:href="#J"/></g></svg>