<svg xmlns="http://www.w3.org/2000/svg" xmlns:xlink="http://www.w3.org/1999/xlink" viewBox="0 0 48 57"><rect width="47" height="9" x=".5" y="11.5" fill="#fff" rx="1.5"/><g fill="#8c9aa6"><use xlink:href="#B"/><path d="M32 15h10v2H32z"/></g><rect width="47" height="9" x=".5" y="20.5" fill="#fff" rx="1.5"/><g fill="#8c9aa6"><use y="9" xlink:href="#B"/><path d="M32 24h10v2H32z"/></g><rect width="47" height="9" x=".5" y="29.5" fill="#fff" rx="1.5"/><g fill="#8c9aa6"><use y="18" xlink:href="#B"/><path d="M32 33h10v2H32z"/></g><rect width="47" height="9" x=".5" y="38.5" fill="#fff" rx="1.5"/><g fill="#8c9aa6"><use y="27" xlink:href="#B"/><path d="M32 42h10v2H32z"/></g><rect width="47" height="9" x=".5" y="47.5" fill="#fff" rx="1.5"/><g fill="#8c9aa6"><use y="36" xlink:href="#B"/><path d="M32 51h10v2H32z"/></g><rect width="48" height="12" fill="#fff" rx="2"/><path fill="#cbd4e0" d="M45 3v6H3V3h42m1-3H2a2 2 0 0 0-2 2v8a2 2 0 0 0 2 2h44a2 2 0 0 0 2-2V2a2 2 0 0 0-2-2z"/><path fill="#8c9aa6" d="M46 1a1 1 0 0 1 1 1v8a1 1 0 0 1-1 1H2a1 1 0 0 1-1-1V2a1 1 0 0 1 1-1h44m0-1H2a2 2 0 0 0-2 2v8a2 2 0 0 0 2 2h44a2 2 0 0 0 2-2V2a2 2 0 0 0-2-2zm-6 5h2v2h-2zm-5 0h2v2h-2zm-5 0h2v2h-2z"/><defs><path id="B" d="M46 12a1 1 0 0 1 1 1v6a1 1 0 0 1-1 1H2a1 1 0 0 1-1-1v-6a1 1 0 0 1 1-1h44m0-1H2a2 2 0 0 0-2 2v6a2 2 0 0 0 2 2h44a2 2 0 0 0 2-2v-6a2 2 0 0 0-2-2z"/></defs></svg>