<svg xmlns="http://www.w3.org/2000/svg" xmlns:svg="http://www.w3.org/2000/svg" id="svg1487" width="742.409" height="742.409" version="1.1" viewBox="0 0 196.429 196.429"><metadata id="metadata1493"/><rect id="rect1483" width="196.429" height="196.429" fill="#4c7bb4" paint-order="normal" rx="8.367"/><path style="opacity:1;vector-effect:none;fill:#fff;fill-opacity:1;stroke:none;stroke-width:3.77952766;stroke-linecap:round;stroke-linejoin:round;stroke-miterlimit:4;stroke-dasharray:none;stroke-dashoffset:17.00787544;stroke-opacity:.64313725;paint-order:normal" id="rect1512" d="M 252.98828 95.123047 L 252.98828 225.46484 L 47.435547 225.46484 L 47.435547 676.29297 L 695.82422 676.29297 L 695.82422 332.40625 L 524.62305 332.40625 L 524.62305 95.123047 L 252.98828 95.123047 z M 272.99023 115.12109 L 504.61914 115.12109 L 504.61914 352.4043 L 675.82031 352.4043 L 675.82031 656.29102 L 435.88672 656.29102 L 435.88672 464.66016 L 352.86328 464.66016 L 352.86328 656.29102 L 272.99023 656.29102 L 272.99023 115.12109 z M 296.91602 159.08398 L 296.91602 249.20117 L 335.85742 249.20117 L 335.85742 159.08398 L 296.91602 159.08398 z M 373.30859 159.08398 L 373.30859 249.20117 L 412.25 249.20117 L 412.25 159.08398 L 373.30859 159.08398 z M 446.45508 159.08398 L 446.45508 249.20117 L 485.39844 249.20117 L 485.39844 159.08398 L 446.45508 159.08398 z M 67.433594 245.46289 L 252.98828 245.46289 L 252.98828 656.29102 L 183.41797 656.29102 L 183.41797 548.29102 L 137.12695 548.29102 L 137.12695 656.29102 L 67.433594 656.29102 L 67.433594 245.46289 z M 99.339844 277.61328 L 99.339844 367.73047 L 138.2832 367.73047 L 138.2832 277.61328 L 99.339844 277.61328 z M 182.50781 277.61328 L 182.50781 367.73047 L 221.44922 367.73047 L 221.44922 277.61328 L 182.50781 277.61328 z M 296.91602 298.7207 L 296.91602 388.83789 L 335.85742 388.83789 L 335.85742 298.7207 L 296.91602 298.7207 z M 373.30859 298.7207 L 373.30859 388.83789 L 412.25 388.83789 L 412.25 298.7207 L 373.30859 298.7207 z M 446.45508 298.7207 L 446.45508 388.83789 L 485.39844 388.83789 L 485.39844 298.7207 L 446.45508 298.7207 z M 516.76953 395.07227 L 516.76953 485.1875 L 555.71289 485.1875 L 555.71289 395.07227 L 516.76953 395.07227 z M 599.91602 395.07227 L 599.91602 485.1875 L 638.85938 485.1875 L 638.85938 395.07227 L 599.91602 395.07227 z M 99.339844 420.91211 L 99.339844 511.0293 L 138.2832 511.0293 L 138.2832 420.91211 L 99.339844 420.91211 z M 182.50781 420.91211 L 182.50781 511.0293 L 221.44922 511.0293 L 221.44922 420.91211 L 182.50781 420.91211 z M 516.76953 538.38281 L 516.76953 628.5 L 555.71289 628.5 L 555.71289 538.38281 L 516.76953 538.38281 z M 599.91602 538.38281 L 599.91602 628.5 L 638.85938 628.5 L 638.85938 538.38281 L 599.91602 538.38281 z" transform="scale(0.26458327)"/></svg>