<svg xmlns="http://www.w3.org/2000/svg" xmlns:svg="http://www.w3.org/2000/svg" id="svg912" width="535.264" height="535.264" version="1.1" viewBox="0 0 141.622 141.622"><metadata id="metadata918"/><rect id="rect904" width="141.622" height="141.622" x="0" y="0" rx="6.032" ry="6.032" style="fill:#168733;paint-order:normal"/><path id="path910" d="m 40.445,64 h 6.214 V 50.133 c 0,-16.316 11.93,-25.997 25.03,-25.997 12.765,0 24.503,10.2 24.503,26.392 V 64 h 6.038 v 49.402 H 40.445 Z m 14.272,0 H 87.915 V 50.44 c 0,-11.46 -8.313,-18.092 -16.753,-18.092 -7.97,0 -16.445,7.045 -16.445,16.95 z m 34.45,7.457 A 2.75,2.75 0 0 0 87.3,72.341 L 67.5,93.264 56.144,81.55 c -0.684,-0.708 -1.694,-0.998 -2.65,-0.76 -0.956,0.238 -1.7,0.97 -1.98,1.917 -0.28,0.947 -0.012,1.966 0.674,2.672 l 15.35,15.85 23.755,-25.098 a 2.75,2.75 0 0 0 -2.13,-4.666 z" dominant-baseline="auto" style="dominant-baseline:auto;fill:#fff"/></svg>